<svg width="65" height="65" viewBox="0 0 65 65" fill="none" xmlns="http://www.w3.org/2000/svg">
<g clip-path="url(#clip0_0_5)">
<path d="M5 0.5H59.9999C62.4853 0.5 64.4999 2.51468 64.4999 5V59.9999C64.4999 62.4853 62.4852 64.5 59.9999 64.5H5C2.5146 64.5 0.499805 62.4852 0.499805 59.9999V5C0.499805 2.5147 2.51459 0.5 5 0.5Z" fill="black" fill-opacity="0.01" stroke="#D4D4D4"/>
<path d="M42.3295 24H24.1002C23.0581 24 22.2133 24.8448 22.2133 25.8869V40.1127C22.2133 41.1548 23.0581 41.9996 24.1002 41.9996H42.3295C43.3716 41.9996 44.2164 41.1548 44.2164 40.1127V25.8869C44.2164 24.8448 43.3716 24 42.3295 24Z" fill="#7B7B7B"/>
<path d="M22 28.5286L31.7792 35.6989C32.5176 36.2404 33.7317 36.2404 34.4701 35.6989L44.4298 28.3974" stroke="white" stroke-width="0.75477" stroke-miterlimit="22.9256"/>
<path d="M49.5 22.5C49.5 19.7385 47.2614 17.5 44.5 17.5C41.7385 17.5 39.5 19.7385 39.5 22.5C39.5 25.2614 41.7386 27.5 44.5 27.5C47.2614 27.5 49.5 25.2614 49.5 22.5Z" fill="#E42626" stroke="white" stroke-width="3"/>
</g>
<defs>
<clipPath id="clip0_0_5">
<rect width="65" height="65" fill="white"/>
</clipPath>
</defs>
</svg>
